<svg width="172" height="199" viewBox="0 0 172 199" fill="none" xmlns="http://www.w3.org/2000/svg">
<path d="M119.688 114.711H115.487C115.508 114.51 115.519 114.307 115.519 114.102C115.519 112.2 114.592 110.49 113.098 109.456C113.059 105.54 110.4 102.241 106.794 101.225C106.947 99.7647 107.028 98.2877 107.028 96.7971C107.028 85.7264 102.743 75.2925 94.9616 67.4186C87.1877 59.5514 76.8197 55.1419 65.7677 55.0026C65.6895 55.0014 65.6119 55.0045 65.5337 55.0037C65.5292 55.0037 65.525 55.0031 65.5206 55.0031C65.3128 54.9978 65.1047 54.9998 64.8972 55.0073C56.8093 55.0671 48.9768 57.4933 42.181 62.04C36.3314 65.9532 31.5987 71.1936 28.329 77.3238C26.8027 75.9709 24.7971 75.1476 22.6018 75.1476C19.6829 75.1476 16.9964 76.6189 15.4108 78.9946C10.7421 79.1088 6.97999 82.9419 6.97999 87.6371C6.97999 88.0817 7.01406 88.5233 7.08109 88.9584H5.80108C3.15365 88.9584 1 91.1121 1 93.7595C1 96.4067 3.15365 98.5603 5.80108 98.5603H23.4721C23.9821 110.922 29.8322 122.267 39.6952 129.888C43.7503 133.021 46.622 137.592 47.7808 142.759L49.4605 150.246C49.8577 152.017 51.0947 153.395 52.6998 154.011L54.6948 171.153H52.9302C49.9943 171.153 47.6052 173.542 47.6052 176.478C47.6052 178.757 49.0466 180.7 51.0628 181.459L52.0823 192.766C52.3518 195.75 54.8138 198.001 57.81 198.001H72.6501C75.6461 198.001 78.1084 195.75 78.3779 192.766L79.3878 181.564C81.556 180.89 83.1346 178.865 83.1346 176.478C83.1346 173.542 80.7458 171.153 77.8095 171.153H76.0449L78.0539 153.892C79.5158 153.227 80.6271 151.909 80.9999 150.246L82.6793 142.759C83.8359 137.604 86.7235 133.02 90.8107 129.853C92.9742 128.177 94.9409 126.319 96.703 124.314H119.688C122.335 124.314 124.489 122.16 124.489 119.513C124.489 116.865 122.335 114.711 119.688 114.711ZM5.80108 94.3684C5.46509 94.3684 5.19166 94.095 5.19166 93.7592C5.19166 93.4233 5.46509 93.1498 5.80108 93.1498H10.0374C10.796 93.1498 11.4954 92.7398 11.866 92.0782C12.2366 91.4165 12.221 90.6057 11.8244 89.9592C11.3973 89.262 11.1717 88.4591 11.1717 87.6368C11.1717 85.181 13.1695 83.1832 15.6253 83.1832C15.8468 83.1832 16.0722 83.2002 16.2948 83.2334C17.2293 83.3737 18.1426 82.8692 18.5233 82.004C19.2346 80.3852 20.8355 79.3392 22.6018 79.3392C25.0574 79.3392 27.0552 81.337 27.0552 83.7929C27.0552 84.0498 27.0314 84.314 26.9848 84.5774C26.7996 85.622 27.4238 86.6403 28.4391 86.9484C29.0496 87.1338 29.4758 87.7097 29.4758 88.349C29.4758 88.7766 29.2884 89.1822 28.9614 89.4617C28.295 90.0323 28.0542 90.9576 28.3584 91.7804C28.6625 92.6032 29.4471 93.1498 30.3243 93.1498H37.8363C38.1722 93.1498 38.4457 93.4233 38.4457 93.7592C38.4457 94.0952 38.172 94.3684 37.8363 94.3684H5.80108ZM54.6071 150.174C54.0968 150.174 53.662 149.826 53.5505 149.328L51.8708 141.841C50.4984 135.723 47.0845 130.3 42.258 126.571C33.4301 119.749 28.1751 109.613 27.6679 98.5598H37.8357C40.4831 98.5598 42.6368 96.4061 42.6368 93.759C42.6368 91.1115 40.4831 88.9579 37.8357 88.9579H33.6343C33.6558 88.7565 33.6669 88.5532 33.6669 88.3485C33.6669 86.4465 32.74 84.7361 31.246 83.7029C31.2385 82.9438 31.1312 82.2082 30.9388 81.5077C35.5647 71.3067 44.5622 63.7252 55.0165 60.6723C48.9371 68.0736 45.1066 81.916 45.1264 96.9186C45.1435 109.621 47.8023 121.42 52.4216 129.29C54.2867 132.467 55.6137 137.163 56.1577 142.512L56.9197 149.998C56.9258 150.058 56.9353 150.115 56.9426 150.174L54.6071 150.174ZM74.2033 192.388C74.1301 193.198 73.4629 193.808 72.6501 193.808H57.81C56.9979 193.808 56.3301 193.198 56.2569 192.388L55.3025 181.802H75.1576L74.2033 192.388ZM77.8098 175.344C78.4346 175.344 78.9432 175.852 78.9432 176.477C78.9432 177.102 78.4349 177.61 77.8098 177.61H52.9299C52.3051 177.61 51.7965 177.102 51.7965 176.477C51.7965 175.852 52.3049 175.344 52.9299 175.344H77.8098ZM56.961 154.366H63.1343V171.152H58.9144L56.961 154.366ZM67.3259 171.152V154.366H73.7788L71.8251 171.152H67.3259ZM88.2435 126.539C83.3876 130.302 79.9593 135.736 78.5893 141.84L76.9099 149.328C76.7982 149.826 76.3636 150.174 75.8531 150.174H73.5179C73.5252 150.115 73.5347 150.059 73.5408 149.999L74.3024 142.511C74.8454 137.174 76.1796 132.466 78.0595 129.255C81.9649 122.583 84.4629 113.105 85.1444 102.648C85.2226 101.446 84.2604 100.43 83.0558 100.43H83.0472C81.9423 100.43 81.0326 101.291 80.9614 102.394C80.326 112.197 78.0291 121.01 74.4421 127.137C72.2653 130.856 70.7344 136.165 70.132 142.088L69.3706 149.575C69.3455 149.82 69.3053 150.02 69.2628 150.175H61.1973C61.1554 150.02 61.1149 149.82 61.0901 149.575L60.3282 142.088C59.7243 136.152 58.2002 130.854 56.0365 127.169C51.7826 119.922 49.334 108.895 49.3181 96.9139C49.298 81.9576 53.3986 67.9035 59.5216 61.9408C61.3015 60.2075 63.1326 59.285 64.9486 59.199C65.1145 59.1976 65.2801 59.1945 65.4463 59.1953C72.1169 59.4294 79.1881 71.1617 80.8011 89.0699C80.8986 90.1519 81.7982 90.9845 82.8843 90.9845C84.1183 90.9845 85.079 89.9217 84.9668 88.6931C84.2587 80.9533 82.5397 73.8067 79.9523 68.0345C78.6324 65.0896 77.1295 62.6086 75.488 60.6253C91.2305 65.1259 102.837 79.7032 102.837 96.7969C102.837 108.512 97.5177 119.353 88.2435 126.539ZM119.688 120.121H99.9395C102.935 115.682 105.04 110.705 106.14 105.426C107.762 106.092 108.907 107.687 108.907 109.546C108.907 109.802 108.884 110.066 108.837 110.331C108.652 111.376 109.277 112.393 110.291 112.701C110.902 112.887 111.328 113.462 111.328 114.102C111.328 114.529 111.141 114.935 110.814 115.214C110.147 115.784 109.906 116.71 110.211 117.533C110.515 118.356 111.299 118.903 112.177 118.903H119.688C120.024 118.903 120.298 119.176 120.298 119.512C120.298 119.848 120.024 120.121 119.688 120.121Z" fill="#FFA800"/>
<path d="M23.8134 149.361C23.2411 145.942 20.2607 143.328 16.6819 143.328C14.1316 143.328 11.8143 144.665 10.5195 146.776C6.81184 147.082 3.88874 150.196 3.88874 153.981C3.88874 157.968 7.13219 161.212 11.1191 161.212H23.4017C23.557 161.212 23.7103 161.194 23.8597 161.16C26.7918 160.783 29.0471 158.249 29.0471 155.265C29.0471 152.228 26.7577 149.714 23.8134 149.361ZM23.2391 157.012C23.209 157.014 23.1788 157.017 23.1489 157.02H11.1194C9.44392 157.02 8.0804 155.657 8.0804 153.981C8.0804 152.306 9.44364 150.942 11.1194 150.942C11.2532 150.942 11.3942 150.952 11.5389 150.972C12.5349 151.108 13.4828 150.523 13.8071 149.574C14.2277 148.345 15.3829 147.519 16.6819 147.519C18.3573 147.519 19.7209 148.882 19.7209 150.558C19.7209 150.78 19.6957 151.004 19.646 151.226C19.477 151.983 19.7393 152.771 20.3283 153.276C20.9171 153.78 21.7371 153.918 22.4585 153.634C22.6677 153.552 22.8836 153.51 23.1001 153.51C24.0681 153.51 24.8551 154.297 24.8551 155.265C24.8554 156.174 24.1455 156.941 23.2391 157.012Z" fill="#FFA800"/>
<path d="M119.688 114.711H115.487C115.508 114.51 115.519 114.307 115.519 114.102C115.519 112.2 114.592 110.49 113.098 109.456C113.059 105.54 110.4 102.241 106.794 101.225C106.947 99.7647 107.028 98.2877 107.028 96.7971C107.028 85.7264 102.743 75.2925 94.9616 67.4186C87.1877 59.5514 76.8197 55.1419 65.7677 55.0026C65.6895 55.0014 65.6119 55.0045 65.5337 55.0037C65.5292 55.0037 65.525 55.0031 65.5206 55.0031C65.3128 54.9978 65.1047 54.9998 64.8972 55.0073C56.8093 55.0671 48.9768 57.4933 42.181 62.04C36.3314 65.9532 31.5987 71.1936 28.329 77.3238C26.8027 75.9709 24.7971 75.1476 22.6018 75.1476C19.6829 75.1476 16.9964 76.6189 15.4108 78.9946C10.7421 79.1088 6.97999 82.9419 6.97999 87.6371C6.97999 88.0817 7.01406 88.5233 7.08109 88.9584H5.80108C3.15365 88.9584 1 91.1121 1 93.7595C1 96.4067 3.15365 98.5603 5.80108 98.5603H23.4721C23.9821 110.922 29.8322 122.267 39.6952 129.888C43.7503 133.021 46.622 137.592 47.7808 142.759L49.4605 150.246C49.8577 152.017 51.0947 153.395 52.6998 154.011L54.6948 171.153H52.9302C49.9943 171.153 47.6052 173.542 47.6052 176.478C47.6052 178.757 49.0466 180.7 51.0628 181.459L52.0823 192.766C52.3518 195.75 54.8138 198.001 57.81 198.001H72.6501C75.6461 198.001 78.1084 195.75 78.3779 192.766L79.3878 181.564C81.556 180.89 83.1346 178.865 83.1346 176.478C83.1346 173.542 80.7458 171.153 77.8095 171.153H76.0449L78.0539 153.892C79.5158 153.227 80.6271 151.909 80.9999 150.246L82.6793 142.759C83.8359 137.604 86.7235 133.02 90.8107 129.853C92.9742 128.177 94.9409 126.319 96.703 124.314H119.688C122.335 124.314 124.489 122.16 124.489 119.513C124.489 116.865 122.335 114.711 119.688 114.711ZM5.80108 94.3684C5.46509 94.3684 5.19166 94.095 5.19166 93.7592C5.19166 93.4233 5.46509 93.1498 5.80108 93.1498H10.0374C10.796 93.1498 11.4954 92.7398 11.866 92.0782C12.2366 91.4165 12.221 90.6057 11.8244 89.9592C11.3973 89.262 11.1717 88.4591 11.1717 87.6368C11.1717 85.181 13.1695 83.1832 15.6253 83.1832C15.8468 83.1832 16.0722 83.2002 16.2948 83.2334C17.2293 83.3737 18.1426 82.8692 18.5233 82.004C19.2346 80.3852 20.8355 79.3392 22.6018 79.3392C25.0574 79.3392 27.0552 81.337 27.0552 83.7929C27.0552 84.0498 27.0314 84.314 26.9848 84.5774C26.7996 85.622 27.4238 86.6403 28.4391 86.9484C29.0496 87.1338 29.4758 87.7097 29.4758 88.349C29.4758 88.7766 29.2884 89.1822 28.9614 89.4617C28.295 90.0323 28.0542 90.9576 28.3584 91.7804C28.6625 92.6032 29.4471 93.1498 30.3243 93.1498H37.8363C38.1722 93.1498 38.4457 93.4233 38.4457 93.7592C38.4457 94.0952 38.172 94.3684 37.8363 94.3684H5.80108ZM54.6071 150.174C54.0968 150.174 53.662 149.826 53.5505 149.328L51.8708 141.841C50.4984 135.723 47.0845 130.3 42.258 126.571C33.4301 119.749 28.1751 109.613 27.6679 98.5598H37.8357C40.4831 98.5598 42.6368 96.4061 42.6368 93.759C42.6368 91.1115 40.4831 88.9579 37.8357 88.9579H33.6343C33.6558 88.7565 33.6669 88.5532 33.6669 88.3485C33.6669 86.4465 32.74 84.7361 31.246 83.7029C31.2385 82.9438 31.1312 82.2082 30.9388 81.5077C35.5647 71.3067 44.5622 63.7252 55.0165 60.6723C48.9371 68.0736 45.1066 81.916 45.1264 96.9186C45.1435 109.621 47.8023 121.42 52.4216 129.29C54.2867 132.467 55.6137 137.163 56.1577 142.512L56.9197 149.998C56.9258 150.058 56.9353 150.115 56.9426 150.174L54.6071 150.174ZM74.2033 192.388C74.1301 193.198 73.4629 193.808 72.6501 193.808H57.81C56.9979 193.808 56.3301 193.198 56.2569 192.388L55.3025 181.802H75.1576L74.2033 192.388ZM77.8098 175.344C78.4346 175.344 78.9432 175.852 78.9432 176.477C78.9432 177.102 78.4349 177.61 77.8098 177.61H52.9299C52.3051 177.61 51.7965 177.102 51.7965 176.477C51.7965 175.852 52.3049 175.344 52.9299 175.344H77.8098ZM56.961 154.366H63.1343V171.152H58.9144L56.961 154.366ZM67.3259 171.152V154.366H73.7788L71.8251 171.152H67.3259ZM88.2435 126.539C83.3876 130.302 79.9593 135.736 78.5893 141.84L76.9099 149.328C76.7982 149.826 76.3636 150.174 75.8531 150.174H73.5179C73.5252 150.115 73.5347 150.059 73.5408 149.999L74.3024 142.511C74.8454 137.174 76.1796 132.466 78.0595 129.255C81.9649 122.583 84.4629 113.105 85.1444 102.648C85.2226 101.446 84.2604 100.43 83.0558 100.43H83.0472C81.9423 100.43 81.0326 101.291 80.9614 102.394C80.326 112.197 78.0291 121.01 74.4421 127.137C72.2653 130.856 70.7344 136.165 70.132 142.088L69.3706 149.575C69.3455 149.82 69.3053 150.02 69.2628 150.175H61.1973C61.1554 150.02 61.1149 149.82 61.0901 149.575L60.3282 142.088C59.7243 136.152 58.2002 130.854 56.0365 127.169C51.7826 119.922 49.334 108.895 49.3181 96.9139C49.298 81.9576 53.3986 67.9035 59.5216 61.9408C61.3015 60.2075 63.1326 59.285 64.9486 59.199C65.1145 59.1976 65.2801 59.1945 65.4463 59.1953C72.1169 59.4294 79.1881 71.1617 80.8011 89.0699C80.8986 90.1519 81.7982 90.9845 82.8843 90.9845C84.1183 90.9845 85.079 89.9217 84.9668 88.6931C84.2587 80.9533 82.5397 73.8067 79.9523 68.0345C78.6324 65.0896 77.1295 62.6086 75.488 60.6253C91.2305 65.1259 102.837 79.7032 102.837 96.7969C102.837 108.512 97.5177 119.353 88.2435 126.539ZM119.688 120.121H99.9395C102.935 115.682 105.04 110.705 106.14 105.426C107.762 106.092 108.907 107.687 108.907 109.546C108.907 109.802 108.884 110.066 108.837 110.331C108.652 111.376 109.277 112.393 110.291 112.701C110.902 112.887 111.328 113.462 111.328 114.102C111.328 114.529 111.141 114.935 110.814 115.214C110.147 115.784 109.906 116.71 110.211 117.533C110.515 118.356 111.299 118.903 112.177 118.903H119.688C120.024 118.903 120.298 119.176 120.298 119.512C120.298 119.848 120.024 120.121 119.688 120.121Z" stroke="white"/>
<path d="M23.8134 149.361C23.2411 145.942 20.2607 143.328 16.6819 143.328C14.1316 143.328 11.8143 144.665 10.5195 146.776C6.81184 147.082 3.88874 150.196 3.88874 153.981C3.88874 157.968 7.13219 161.212 11.1191 161.212H23.4017C23.557 161.212 23.7103 161.194 23.8597 161.16C26.7918 160.783 29.0471 158.249 29.0471 155.265C29.0471 152.228 26.7577 149.714 23.8134 149.361ZM23.2391 157.012C23.209 157.014 23.1788 157.017 23.1489 157.02H11.1194C9.44392 157.02 8.0804 155.657 8.0804 153.981C8.0804 152.306 9.44364 150.942 11.1194 150.942C11.2532 150.942 11.3942 150.952 11.5389 150.972C12.5349 151.108 13.4828 150.523 13.8071 149.574C14.2277 148.345 15.3829 147.519 16.6819 147.519C18.3573 147.519 19.7209 148.882 19.7209 150.558C19.7209 150.78 19.6957 151.004 19.646 151.226C19.477 151.983 19.7393 152.771 20.3283 153.276C20.9171 153.78 21.7371 153.918 22.4585 153.634C22.6677 153.552 22.8836 153.51 23.1001 153.51C24.0681 153.51 24.8551 154.297 24.8551 155.265C24.8554 156.174 24.1455 156.941 23.2391 157.012Z" stroke="white"/>
<mask id="path-2-inside-1" fill="white">
<path fill-rule="evenodd" clip-rule="evenodd" d="M159.987 81.7716C159.987 80.9803 159.347 80.3355 158.562 80.3355C157.776 80.3355 157.136 80.9803 157.136 81.7716C157.078 87.3989 152.538 91.9125 146.952 91.8832C146.166 91.8832 145.526 92.528 145.526 93.3193C145.526 94.1106 146.166 94.7554 146.952 94.7554C152.538 94.7261 157.078 99.2397 157.136 104.867C157.136 105.658 157.776 106.303 158.562 106.303C159.347 106.303 159.987 105.658 159.987 104.867C160.045 99.2397 164.585 94.7261 170.171 94.7554C170.957 94.7554 171.597 94.1106 171.597 93.3193C171.597 92.528 170.957 91.8832 170.171 91.8832C164.585 91.9125 160.045 87.3989 159.987 81.7716ZM149.105 25.8797C149.483 25.8797 149.803 26.2021 149.803 26.5831C149.832 29.3967 152.102 31.6535 154.895 31.6242C155.273 31.6242 155.594 31.9466 155.594 32.3276C155.594 32.7086 155.273 33.031 154.895 33.031C152.102 33.0017 149.832 35.2585 149.803 38.0722C149.803 38.4532 149.483 38.7756 149.105 38.7756C148.727 38.7756 148.406 38.4532 148.406 38.0722C148.377 35.2878 146.108 33.0017 143.314 33.031C142.936 33.031 142.616 32.7086 142.616 32.3276C142.616 31.9466 142.936 31.6242 143.314 31.6242C146.108 31.6535 148.377 29.3967 148.406 26.5831C148.406 26.2021 148.727 25.8797 149.105 25.8797ZM46.1871 31.3604C46.1871 30.9794 45.8671 30.657 45.4888 30.657C45.1105 30.657 44.7904 30.9794 44.7904 31.3604C44.7614 34.1741 42.4917 36.4309 39.6984 36.4016C39.3201 36.4016 39.0001 36.7239 39.0001 37.105C39.0001 37.486 39.3201 37.8084 39.6984 37.8084C42.4917 37.7791 44.7614 40.0652 44.7904 42.8495C44.7904 43.2305 45.1105 43.5529 45.4888 43.5529C45.8671 43.5529 46.1871 43.2305 46.1871 42.8495C46.2162 40.0358 48.4858 37.7791 51.2792 37.8084C51.6575 37.8084 51.9775 37.486 51.9775 37.105C51.9775 36.7239 51.6575 36.4016 51.2792 36.4016C48.4858 36.4309 46.2162 34.1741 46.1871 31.3604ZM77.1468 22.1575C77.1468 22.8609 76.5649 23.4471 75.8665 23.4471C75.1682 23.4471 74.5862 22.8609 74.5862 22.1575C74.5572 17.0577 70.4253 12.9838 65.3915 13.0131C64.6931 13.0131 64.1112 12.4269 64.1112 11.7235C64.1112 11.0201 64.6931 10.4339 65.3915 10.4339C70.4253 10.4632 74.5572 6.36001 74.5863 1.28958C74.5863 0.58617 75.1682 -4.21504e-06 75.8665 -4.18452e-06C76.5649 -4.15399e-06 77.1468 0.586171 77.1468 1.28958C77.1759 6.38932 81.3078 10.4632 86.3416 10.4339C87.04 10.4339 87.6219 11.0201 87.6219 11.7235C87.6219 12.4269 87.04 13.0131 86.3416 13.0131C81.3078 12.9838 77.1759 17.087 77.1468 22.1575ZM111.715 80.3355C113.169 80.3355 114.333 79.1631 114.333 77.6977C114.421 67.2931 122.83 58.94 133.159 58.9987C134.614 58.9987 135.778 57.8263 135.778 56.3609C135.778 54.8954 134.614 53.7231 133.159 53.7231C122.83 53.7817 114.421 45.4287 114.333 35.024C114.333 33.5586 113.169 32.3862 111.715 32.3862C110.26 32.3862 109.096 33.5586 109.096 35.024C109.009 45.4287 100.599 53.7817 90.2698 53.7231C88.8149 53.7231 87.651 54.8954 87.651 56.3609C87.651 57.8263 88.8149 58.9987 90.2698 58.9987C100.599 58.94 109.009 67.3224 109.096 77.6977C109.096 79.1631 110.26 80.3355 111.715 80.3355Z"/>
</mask>
<path d="M159.987 81.7716L155.987 81.7716L155.987 81.7923L155.987 81.813L159.987 81.7716ZM157.136 81.7716L161.136 81.813L161.136 81.7923L161.136 81.7716L157.136 81.7716ZM146.952 91.8832L146.973 87.8832L146.962 87.8832L146.952 87.8832L146.952 91.8832ZM146.952 94.7554L146.952 98.7554L146.962 98.7554L146.973 98.7554L146.952 94.7554ZM157.136 104.867L161.136 104.867L161.136 104.846L161.136 104.826L157.136 104.867ZM159.987 104.867L155.987 104.826L155.987 104.846L155.987 104.867L159.987 104.867ZM170.171 94.7554L170.15 98.7554L170.161 98.7554L170.171 98.7554L170.171 94.7554ZM170.171 91.8832L170.171 87.8832L170.161 87.8832L170.15 87.8832L170.171 91.8832ZM149.803 26.5831L145.803 26.5831L145.803 26.6038L145.803 26.6245L149.803 26.5831ZM154.895 31.6242L154.895 27.6242L154.874 27.6242L154.853 27.6244L154.895 31.6242ZM154.895 33.031L154.853 37.0308L154.874 37.031L154.895 37.031L154.895 33.031ZM149.803 38.0722L145.803 38.0308L145.803 38.0515L145.803 38.0722L149.803 38.0722ZM148.406 38.0722L152.406 38.0722L152.406 38.0513L152.406 38.0304L148.406 38.0722ZM143.314 33.031L143.314 37.031L143.335 37.031L143.356 37.0308L143.314 33.031ZM143.314 31.6242L143.356 27.6244L143.335 27.6242L143.314 27.6242L143.314 31.6242ZM148.406 26.5831L152.406 26.6245L152.406 26.6038L152.406 26.5831L148.406 26.5831ZM46.1871 31.3604L42.1871 31.3604L42.1871 31.3811L42.1873 31.4018L46.1871 31.3604ZM44.7904 31.3604L48.7902 31.4018L48.7904 31.3811L48.7904 31.3604L44.7904 31.3604ZM39.6984 36.4016L39.7404 32.4018L39.7194 32.4016L39.6984 32.4016L39.6984 36.4016ZM39.6984 37.8084L39.6984 41.8084L39.7194 41.8084L39.7404 41.8082L39.6984 37.8084ZM44.7904 42.8495L48.7904 42.8495L48.7904 42.8286L48.7902 42.8077L44.7904 42.8495ZM46.1871 42.8495L42.1873 42.8081L42.1871 42.8288L42.1871 42.8495L46.1871 42.8495ZM51.2792 37.8084L51.2372 41.8082L51.2582 41.8084L51.2792 41.8084L51.2792 37.8084ZM51.2792 36.4016L51.2792 32.4016L51.2582 32.4016L51.2372 32.4018L51.2792 36.4016ZM77.1468 22.1575L73.1469 22.1345L73.1468 22.146L73.1468 22.1575L77.1468 22.1575ZM74.5862 22.1575L78.5862 22.1575L78.5862 22.1461L78.5862 22.1346L74.5862 22.1575ZM65.3915 13.0131L65.3915 17.0131L65.4031 17.0131L65.4147 17.013L65.3915 13.0131ZM65.3915 10.4339L65.4147 6.434L65.4031 6.43394L65.3915 6.43394L65.3915 10.4339ZM74.5863 1.28958L78.5862 1.31254L78.5863 1.30106L78.5863 1.28958L74.5863 1.28958ZM77.1468 1.28958L73.1468 1.28958L73.1468 1.30099L73.1469 1.3124L77.1468 1.28958ZM86.3416 10.4339L86.3416 6.43394L86.33 6.43394L86.3183 6.434L86.3416 10.4339ZM86.3416 13.0131L86.3183 17.013L86.33 17.0131L86.3416 17.0131L86.3416 13.0131ZM114.333 77.6977L110.334 77.6641L110.333 77.6809L110.333 77.6977L114.333 77.6977ZM133.159 58.9987L133.137 62.9986L133.148 62.9987L133.159 62.9987L133.159 58.9987ZM133.159 53.7231L133.159 49.7231L133.148 49.7231L133.137 49.7231L133.159 53.7231ZM114.333 35.024L110.333 35.024L110.333 35.0408L110.334 35.0576L114.333 35.024ZM109.096 35.024L113.096 35.0576L113.096 35.0408L113.096 35.024L109.096 35.024ZM90.2698 53.7231L90.2925 49.7231L90.2811 49.7231L90.2698 49.7231L90.2698 53.7231ZM90.2698 58.9987L90.2698 62.9987L90.2811 62.9987L90.2925 62.9986L90.2698 58.9987ZM109.096 77.6977L113.096 77.6977L113.096 77.6809L113.096 77.664L109.096 77.6977ZM158.562 84.3355C157.111 84.3355 155.987 83.1621 155.987 81.7716L163.987 81.7716C163.987 78.7985 161.584 76.3355 158.562 76.3355L158.562 84.3355ZM161.136 81.7716C161.136 83.1621 160.012 84.3355 158.562 84.3355L158.562 76.3355C155.539 76.3355 153.136 78.7985 153.136 81.7716L161.136 81.7716ZM146.931 95.8831C154.752 95.9241 161.055 89.6078 161.136 81.813L153.136 81.7302C153.1 85.19 150.325 87.9008 146.973 87.8832L146.931 95.8831ZM149.526 93.3193C149.526 94.7097 148.402 95.8832 146.952 95.8832L146.952 87.8832C143.93 87.8832 141.526 90.3462 141.526 93.3193L149.526 93.3193ZM146.952 90.7554C148.402 90.7554 149.526 91.9288 149.526 93.3193L141.526 93.3193C141.526 96.2925 143.93 98.7554 146.952 98.7554L146.952 90.7554ZM161.136 104.826C161.055 97.0308 154.752 90.7144 146.931 90.7555L146.973 98.7554C150.325 98.7378 153.1 101.449 153.136 104.908L161.136 104.826ZM158.562 102.303C160.012 102.303 161.136 103.477 161.136 104.867L153.136 104.867C153.136 107.84 155.539 110.303 158.562 110.303L158.562 102.303ZM155.987 104.867C155.987 103.477 157.111 102.303 158.562 102.303L158.562 110.303C161.584 110.303 163.987 107.84 163.987 104.867L155.987 104.867ZM170.192 90.7555C162.371 90.7144 156.068 97.0308 155.987 104.826L163.987 104.908C164.023 101.449 166.798 98.7378 170.15 98.7554L170.192 90.7555ZM167.597 93.3193C167.597 91.9288 168.721 90.7554 170.171 90.7554L170.171 98.7554C173.193 98.7554 175.597 96.2925 175.597 93.3193L167.597 93.3193ZM170.171 95.8832C168.721 95.8832 167.597 94.7097 167.597 93.3193L175.597 93.3193C175.597 90.3462 173.193 87.8832 170.171 87.8832L170.171 95.8832ZM155.987 81.813C156.068 89.6078 162.371 95.9241 170.192 95.8831L170.15 87.8832C166.798 87.9008 164.023 85.19 163.987 81.7302L155.987 81.813ZM153.803 26.5831C153.803 24.0203 151.719 21.8797 149.105 21.8797L149.105 29.8797C147.247 29.8797 145.803 28.3839 145.803 26.5831L153.803 26.5831ZM154.853 27.6244C154.315 27.6301 153.81 27.192 153.803 26.5417L145.803 26.6245C145.855 31.6015 149.889 35.677 154.937 35.624L154.853 27.6244ZM159.594 32.3276C159.594 29.7648 157.51 27.6242 154.895 27.6242L154.895 35.6242C153.037 35.6242 151.594 34.1284 151.594 32.3276L159.594 32.3276ZM154.895 37.031C157.51 37.031 159.594 34.8905 159.594 32.3276L151.594 32.3276C151.594 30.5268 153.037 29.031 154.895 29.031L154.895 37.031ZM153.803 38.1135C153.81 37.4632 154.315 37.0252 154.853 37.0308L154.937 29.0313C149.889 28.9783 145.855 33.0538 145.803 38.0308L153.803 38.1135ZM149.105 42.7756C151.72 42.7756 153.803 40.6349 153.803 38.0722L145.803 38.0722C145.803 36.2714 147.247 34.7756 149.105 34.7756L149.105 42.7756ZM144.406 38.0722C144.406 40.635 146.49 42.7756 149.105 42.7756L149.105 34.7756C150.963 34.7756 152.406 36.2714 152.406 38.0722L144.406 38.0722ZM143.356 37.0308C143.88 37.0253 144.4 37.4772 144.407 38.114L152.406 38.0304C152.355 33.0985 148.336 28.9781 143.272 29.0313L143.356 37.0308ZM138.616 32.3276C138.616 34.8905 140.7 37.031 143.314 37.031L143.314 29.031C145.173 29.031 146.616 30.5268 146.616 32.3276L138.616 32.3276ZM143.314 27.6242C140.7 27.6242 138.616 29.7648 138.616 32.3276L146.616 32.3276C146.616 34.1284 145.173 35.6242 143.314 35.6242L143.314 27.6242ZM144.407 26.5417C144.4 27.192 143.895 27.6301 143.356 27.6244L143.272 35.624C148.321 35.677 152.355 31.6015 152.406 26.6245L144.407 26.5417ZM149.105 21.8797C146.49 21.8797 144.406 24.0203 144.406 26.5831L152.406 26.5831C152.406 28.3839 150.963 29.8797 149.105 29.8797L149.105 21.8797ZM45.4888 34.657C43.6306 34.657 42.1871 33.1612 42.1871 31.3604L50.1871 31.3604C50.1871 28.7977 48.1035 26.657 45.4888 26.657L45.4888 34.657ZM48.7904 31.3604C48.7904 33.1612 47.3469 34.657 45.4888 34.657L45.4888 26.657C42.8742 26.657 40.7904 28.7976 40.7904 31.3604L48.7904 31.3604ZM39.6564 40.4013C44.7046 40.4543 48.7388 36.3788 48.7902 31.4018L40.7907 31.3191C40.7839 31.9694 40.2788 32.4074 39.7404 32.4018L39.6564 40.4013ZM43.0001 37.105C43.0001 38.9057 41.5565 40.4016 39.6984 40.4016L39.6984 32.4016C37.0837 32.4016 35.0001 34.5422 35.0001 37.105L43.0001 37.105ZM39.6984 33.8084C41.5566 33.8084 43.0001 35.3042 43.0001 37.105L35.0001 37.105C35.0001 39.6677 37.0837 41.8084 39.6984 41.8084L39.6984 33.8084ZM48.7902 42.8077C48.7387 37.8758 44.7199 33.7555 39.6564 33.8086L39.7404 41.8082C40.2636 41.8027 40.784 42.2545 40.7907 42.8913L48.7902 42.8077ZM45.4888 39.5529C47.3468 39.5529 48.7904 41.0486 48.7904 42.8495L40.7904 42.8495C40.7904 45.4124 42.8742 47.5529 45.4888 47.5529L45.4888 39.5529ZM42.1871 42.8495C42.1871 41.0487 43.6307 39.5529 45.4888 39.5529L45.4888 47.5529C48.1034 47.5529 50.1871 45.4123 50.1871 42.8495L42.1871 42.8495ZM51.3212 33.8086C46.2729 33.7556 42.2388 37.8311 42.1873 42.8081L50.1869 42.8909C50.1936 42.2406 50.6987 41.8025 51.2372 41.8082L51.3212 33.8086ZM47.9775 37.105C47.9775 35.3042 49.421 33.8084 51.2792 33.8084L51.2792 41.8084C53.8939 41.8084 55.9775 39.6677 55.9775 37.105L47.9775 37.105ZM51.2792 40.4016C49.4211 40.4016 47.9775 38.9057 47.9775 37.105L55.9775 37.105C55.9775 34.5422 53.8939 32.4016 51.2792 32.4016L51.2792 40.4016ZM42.1873 31.4018C42.2388 36.3788 46.2729 40.4543 51.3212 40.4013L51.2372 32.4018C50.6987 32.4074 50.1936 31.9694 50.1869 31.3191L42.1873 31.4018ZM75.8665 27.4471C78.8013 27.4471 81.1468 25.0427 81.1468 22.1575L73.1468 22.1575C73.1468 20.6791 74.3285 19.4471 75.8665 19.4471L75.8665 27.4471ZM70.5862 22.1575C70.5862 25.0427 72.9318 27.4471 75.8665 27.4471L75.8665 19.4471C77.4046 19.4471 78.5862 20.6791 78.5862 22.1575L70.5862 22.1575ZM65.4147 17.013C68.2266 16.9967 70.5697 19.2771 70.5863 22.1803L78.5862 22.1346C78.5446 14.8383 72.624 8.97093 65.3682 9.01318L65.4147 17.013ZM60.1112 11.7235C60.1112 14.6087 62.4567 17.0131 65.3915 17.0131L65.3915 9.01311C66.9295 9.01311 68.1112 10.2451 68.1112 11.7235L60.1112 11.7235ZM65.3915 6.43394C62.4567 6.43394 60.1112 8.83832 60.1112 11.7235L68.1112 11.7235C68.1112 13.2019 66.9295 14.4339 65.3915 14.4339L65.3915 6.43394ZM70.5863 1.26663C70.5698 4.14902 68.2182 6.45033 65.4147 6.434L65.3682 14.4339C72.6324 14.4762 78.5445 8.571 78.5862 1.31254L70.5863 1.26663ZM75.8665 -4C72.9318 -4 70.5863 -1.59563 70.5863 1.28958L78.5863 1.28958C78.5863 2.76797 77.4046 4 75.8665 4L75.8665 -4ZM81.1468 1.28958C81.1468 -1.59563 78.8013 -4 75.8665 -4L75.8665 4C74.3285 4 73.1468 2.76797 73.1468 1.28958L81.1468 1.28958ZM86.3183 6.434C83.5064 6.45038 81.1633 4.16991 81.1468 1.26677L73.1469 1.3124C73.1885 8.60873 79.1091 14.4761 86.3649 14.4339L86.3183 6.434ZM91.6219 11.7235C91.6219 8.83832 89.2764 6.43394 86.3416 6.43394L86.3416 14.4339C84.8036 14.4339 83.6219 13.2019 83.6219 11.7235L91.6219 11.7235ZM86.3416 17.0131C89.2763 17.0131 91.6219 14.6087 91.6219 11.7235L83.6219 11.7235C83.6219 10.2451 84.8036 9.01311 86.3416 9.01311L86.3416 17.0131ZM81.1468 22.1804C81.1633 19.298 83.5148 16.9967 86.3183 17.013L86.3649 9.01318C79.1007 8.97088 73.1885 14.876 73.1469 22.1345L81.1468 22.1804ZM110.333 77.6977C110.333 76.9813 110.933 76.3355 111.715 76.3355L111.715 84.3355C115.406 84.3355 118.333 81.3449 118.333 77.6977L110.333 77.6977ZM133.182 54.9987C120.62 54.9274 110.439 65.0823 110.334 77.6641L118.333 77.7312C118.402 69.5038 125.039 62.9526 133.137 62.9986L133.182 54.9987ZM131.778 56.3609C131.778 55.6445 132.378 54.9987 133.159 54.9987L133.159 62.9987C136.851 62.9987 139.778 60.0081 139.778 56.3609L131.778 56.3609ZM133.159 57.7231C132.378 57.7231 131.778 57.0772 131.778 56.3609L139.778 56.3609C139.778 52.7136 136.851 49.7231 133.159 49.7231L133.159 57.7231ZM110.334 35.0576C110.439 47.6395 120.62 57.7943 133.182 57.723L133.137 49.7231C125.039 49.7691 118.402 43.2179 118.333 34.9905L110.334 35.0576ZM111.715 36.3862C110.933 36.3862 110.333 35.7404 110.333 35.024L118.333 35.024C118.333 31.3768 115.406 28.3862 111.715 28.3862L111.715 36.3862ZM113.096 35.024C113.096 35.7404 112.496 36.3862 111.715 36.3862L111.715 28.3862C108.023 28.3862 105.096 31.3768 105.096 35.024L113.096 35.024ZM90.2471 57.723C102.809 57.7943 112.99 47.6395 113.096 35.0576L105.096 34.9905C105.027 43.2179 98.3897 49.7691 90.2925 49.7231L90.2471 57.723ZM91.651 56.3609C91.651 57.0772 91.0513 57.7231 90.2698 57.7231L90.2698 49.7231C86.5785 49.7231 83.651 52.7136 83.651 56.3609L91.651 56.3609ZM90.2698 54.9987C91.0513 54.9987 91.651 55.6445 91.651 56.3609L83.651 56.3609C83.651 60.0081 86.5785 62.9987 90.2698 62.9987L90.2698 54.9987ZM113.096 77.664C112.99 65.1157 102.813 54.9274 90.2471 54.9987L90.2925 62.9986C98.3856 62.9527 105.027 69.529 105.096 77.7313L113.096 77.664ZM111.715 76.3355C112.496 76.3355 113.096 76.9813 113.096 77.6977L105.096 77.6977C105.096 81.3449 108.023 84.3355 111.715 84.3355L111.715 76.3355Z" fill="#FFA800" fill-opacity="0.4" mask="url(#path-2-inside-1)"/>
</svg>
