<svg width="1366" height="482" viewBox="0 0 1366 482" fill="none" xmlns="http://www.w3.org/2000/svg">
<path fill-rule="evenodd" clip-rule="evenodd" d="M5.32945 23.6811C3.56152 23.2771 1.79162 22.8726 0 22.5146L4.50874e-06 472.677C1.79161 473.038 3.56151 473.445 5.32943 473.852C9.39775 474.788 13.4556 475.722 17.7433 476.078C21.0554 476.418 23.6579 477.098 26.2602 478.459C30.7552 480.839 35.4868 482.37 41.6378 481.179C43.8377 480.743 45.9404 480.184 48.0394 479.627L48.0406 479.626C52.487 478.445 56.9169 477.268 62.2201 477.268C70.526 477.268 79.2579 475.737 87.6073 474.273L87.6081 474.273L88.4275 474.13L88.9533 474.038C93.6849 473.187 97.7067 473.867 101.965 475.568C108.353 478.118 114.977 478.118 122.311 477.098C124.318 476.817 126.336 476.448 128.362 476.077L128.362 476.077C136.124 474.658 144.003 473.217 151.883 476.588C153.539 477.268 156.141 477.268 158.034 476.758C161.921 475.787 165.807 475.682 169.694 475.578L169.696 475.578C171.25 475.537 172.804 475.495 174.358 475.398C176.295 475.271 178.231 475.103 180.172 474.934L180.173 474.934C186.054 474.423 191.968 473.908 198.016 474.548C200.145 474.718 203.93 474.208 204.64 473.187C208.898 467.576 215.759 466.726 223.566 466.216C223.849 466.199 224.129 466.18 224.407 466.162L224.412 466.161C226.922 465.995 229.221 465.842 231.136 467.066C232.793 468.086 234.685 468.426 236.814 468.426C239.535 468.511 242.256 468.681 244.976 468.851C247.697 469.021 250.418 469.191 253.138 469.276C257.633 469.446 261.655 468.596 264.731 465.876C266.15 464.515 268.043 464.175 270.172 463.835C275.14 463.155 279.872 464.005 284.13 465.876C287.205 467.066 289.808 467.066 293.12 466.896C297.023 466.556 300.986 466.343 304.949 466.131C308.911 465.918 312.874 465.705 316.778 465.365C319.617 465.099 322.393 465.481 325.137 465.859L325.138 465.859L325.138 465.859C327.652 466.206 330.14 466.548 332.628 466.386C341.855 465.705 350.845 465.705 359.835 467.576C362.567 468.112 365.444 468.335 368.334 468.559C373.702 468.975 379.116 469.395 383.729 471.827C384.21 472.058 384.801 471.975 385.352 471.899C385.614 471.862 385.867 471.827 386.095 471.827C389.644 471.487 393.192 471.147 396.741 472.337C398.397 473.017 400.526 472.507 401.472 471.487C404.548 468.256 408.097 468.936 411.882 470.637C412.828 471.09 413.775 471.09 414.791 471.09C415.299 471.09 415.825 471.09 416.377 471.147C419.921 471.26 423.492 471.147 427.071 471.034C434.243 470.807 441.45 470.579 448.552 472.167C451.706 472.896 454.967 472.853 458.233 472.811C461.827 472.764 465.427 472.718 468.897 473.697C469.594 473.898 470.372 473.744 471.184 473.584C471.751 473.472 472.335 473.357 472.919 473.357C474.834 473.185 476.265 472.317 477.609 471.501C478.922 470.704 480.153 469.957 481.672 469.957C492.318 469.616 502.728 469.106 512.191 465.195C513.137 464.855 514.557 464.855 515.74 465.025C520.927 465.92 525.932 464.984 530.914 464.052C531.613 463.921 532.311 463.79 533.01 463.665C533.92 463.534 534.83 463.395 535.739 463.257C540.744 462.493 545.749 461.729 550.753 462.305C551.91 462.461 552.978 462.696 554.032 462.928L554.033 462.928C556.428 463.456 558.751 463.967 561.872 463.495C563.848 463.14 565.837 462.812 567.827 462.484C574.413 461.4 581.009 460.313 587.186 458.224C590.735 457.033 594.047 456.693 597.595 456.863C599.015 456.863 600.198 456.863 601.617 456.693C603.91 456.411 606.203 456.011 608.507 455.609L608.509 455.609C614.522 454.56 620.603 453.499 626.931 454.483C628.193 454.709 629.244 454.332 630.296 453.954C630.822 453.765 631.347 453.576 631.899 453.462C632.5 453.325 633.105 453.181 633.712 453.036L633.72 453.034C638.369 451.923 643.204 450.769 648.223 452.272C652.008 453.292 655.557 453.633 659.579 453.803C674.483 454.143 688.441 457.373 701.926 461.625C705.475 462.645 708.314 462.645 711.626 461.965C713.318 461.627 714.936 461.154 716.538 460.687L716.539 460.687C718.968 459.978 721.362 459.279 723.928 459.074C730.552 458.564 737.176 459.244 743.564 460.944C743.679 460.98 743.798 461.017 743.92 461.055C745.545 461.564 747.685 462.234 749.005 461.284C753.59 458.46 757.772 459.69 762.109 460.966L762.523 461.087C762.748 461.154 762.974 461.219 763.2 461.284C768.878 463.155 774.082 462.135 778.577 458.734C780.234 457.373 782.363 456.693 784.965 456.693C793.009 456.353 800.816 455.163 807.677 451.932C808.111 451.759 808.555 451.55 809.013 451.335C810.8 450.494 812.799 449.555 815.247 450.232C818.623 451.114 822.22 451.392 825.828 451.671C830.563 452.038 835.318 452.405 839.615 454.143C844.109 456.013 847.895 456.183 853.336 454.313C861.853 451.252 871.079 452.272 879.833 455.673C880.605 455.99 881.372 456.332 882.141 456.675C886.318 458.538 890.562 460.431 896.157 458.564C896.348 458.426 896.847 458.622 897.281 458.792C897.385 458.832 897.485 458.871 897.576 458.904C899.737 460.048 902.227 460.8 904.728 461.555C907.43 462.371 910.147 463.191 912.48 464.515C921.944 470.127 932.826 471.997 944.892 469.106C945.531 468.992 946.278 469.032 946.987 469.07C947.194 469.081 947.397 469.092 947.594 469.099C947.721 469.104 947.846 469.106 947.967 469.106C951.221 469.486 954.573 469.559 957.939 469.633H957.939C963.626 469.759 969.35 469.885 974.7 471.487C975.174 471.657 976.12 471.487 976.593 471.317C978.391 470.168 980.358 470.353 982.352 470.541L982.356 470.542C982.722 470.576 983.088 470.61 983.454 470.637C985.82 470.722 988.126 470.849 990.433 470.977H990.433C992.74 471.104 995.046 471.232 997.412 471.317C1002.55 471.555 1006.87 470.043 1011.19 468.532C1013.04 467.884 1014.89 467.236 1016.81 466.726C1016.93 466.695 1017.05 466.663 1017.17 466.632C1017.33 466.592 1017.48 466.551 1017.64 466.511C1020.68 465.719 1023.71 464.926 1026.75 465.706C1035.74 467.746 1044.49 469.957 1053.24 472.677C1055.06 473.249 1056.93 473.35 1058.81 473.451C1060.84 473.561 1062.87 473.67 1064.84 474.378C1075.01 478.119 1086.13 479.139 1097.72 478.289C1098.62 478.224 1099.52 478.151 1100.43 478.078C1106.67 477.574 1113.05 477.06 1119.25 479.139C1122.32 480.159 1126.35 481.009 1129.9 480.669L1130.72 480.582C1138.47 479.761 1146.02 478.963 1153.79 478.799C1155.84 478.746 1157.89 478.482 1159.94 478.217L1159.94 478.217C1164.51 477.627 1169.09 477.038 1173.66 478.799C1176.97 479.989 1180.05 478.799 1182.89 477.608C1191.41 474.378 1199.92 471.657 1210.1 472.337C1214.33 472.497 1218.15 473.262 1222.14 474.061L1222.87 474.208C1225.71 474.718 1228.78 475.058 1230.2 472.847C1232.1 469.957 1235.17 469.787 1238.48 469.787C1239.03 469.787 1239.58 469.79 1240.13 469.795C1240.92 469.802 1241.71 469.813 1242.51 469.824C1245.19 469.862 1247.87 469.9 1250.55 469.787C1257.17 469.276 1263.33 469.276 1269.71 470.977C1270.62 471.237 1271.53 471.523 1272.44 471.81C1276.27 473.019 1280.17 474.247 1284.38 473.698C1287.69 473.357 1291 473.698 1294.08 474.378C1300.94 475.738 1308.51 476.588 1314.66 474.718C1322.71 472.081 1331.17 471.077 1339.55 470.083C1345.22 469.411 1350.86 468.743 1356.3 467.576C1359.61 466.896 1362.92 467.236 1366 467.576V17.45C1362.92 17.1124 1359.61 16.7747 1356.3 17.45C1350.86 18.6082 1345.22 19.2715 1339.55 19.9391C1331.17 20.926 1322.71 21.9225 1314.66 24.5406C1308.51 26.3976 1300.94 25.5535 1294.08 24.2029C1291 23.5276 1287.69 23.19 1284.38 23.5276C1280.17 24.0735 1276.27 22.8542 1272.44 21.6534C1271.53 21.3688 1270.62 21.0852 1269.71 20.8265C1263.33 19.1382 1257.17 19.1382 1250.55 19.6447C1247.87 19.7573 1245.19 19.7197 1242.51 19.6822C1241.17 19.6635 1239.83 19.6447 1238.48 19.6447C1235.17 19.6447 1232.1 19.8135 1230.2 22.6835C1228.78 24.8782 1225.71 24.5406 1222.87 24.0341L1222.14 23.8883C1218.15 23.0949 1214.33 22.3361 1210.1 22.177C1199.92 21.5018 1191.41 24.2029 1182.89 27.4106C1180.05 28.5923 1176.97 29.7741 1173.66 28.5923C1169.09 26.8438 1164.51 27.4294 1159.94 28.015C1157.89 28.2775 1155.84 28.5401 1153.79 28.5923C1147.19 28.7309 1140.74 29.3247 1134.19 30H1123.31C1121.86 29.7136 1120.48 29.3353 1119.25 28.9299C1113.05 26.8661 1106.67 27.3768 1100.43 27.8767C1099.52 27.9493 1098.62 28.0216 1097.72 28.0858C1086.13 28.9299 1075.01 27.917 1064.84 24.2029C1062.87 23.5008 1060.84 23.3918 1058.81 23.283C1056.93 23.1825 1055.06 23.0821 1053.24 22.5147C1044.49 19.8135 1035.74 17.6188 1026.75 15.5929C1023.71 14.8192 1020.68 15.6059 1017.64 16.3925C1017.36 16.464 1017.09 16.5355 1016.81 16.6059C1014.89 17.1124 1013.04 17.7556 1011.19 18.3988C1006.87 19.8996 1002.55 21.4004 997.412 21.1641C995.046 21.0797 992.739 20.9531 990.433 20.8264C988.126 20.6998 985.82 20.5732 983.454 20.4888C983.086 20.4626 982.718 20.4282 982.352 20.3939C980.358 20.2074 978.391 20.0234 976.593 21.1641C976.12 21.3329 975.174 21.5017 974.7 21.3329C969.35 19.742 963.626 19.617 957.939 19.4927C954.574 19.4192 951.221 19.346 947.967 18.9694C947.66 18.9694 947.328 18.9516 946.987 18.9334C946.278 18.8954 945.531 18.8554 944.892 18.9694C932.826 21.8394 921.944 19.9823 912.48 14.4112C910.147 13.0964 907.43 12.2822 904.728 11.4724C902.227 10.7225 899.737 9.9764 897.576 8.84002C897.485 8.80752 897.385 8.76875 897.281 8.72855C896.847 8.55995 896.348 8.36606 896.157 8.50238C890.562 10.3559 886.318 8.47664 882.141 6.62724C881.372 6.28679 880.605 5.94735 879.833 5.63239C871.079 2.25594 861.853 1.243 853.336 4.28181C847.895 6.13886 844.109 5.97003 839.615 4.11298C835.318 2.38819 830.563 2.02308 825.828 1.65939C822.22 1.38232 818.623 1.10607 815.247 0.230057C812.799 -0.441902 810.8 0.490882 809.013 1.32513C808.555 1.53886 808.111 1.74613 807.677 1.91828C800.816 5.12592 793.009 6.30767 784.965 6.64532C782.363 6.64532 780.234 7.32061 778.577 8.67119C774.082 12.0477 768.878 13.0606 763.2 11.2035C762.835 11.0993 762.471 10.9931 762.109 10.8872C757.772 9.62058 753.59 8.39918 749.005 11.2035C747.685 12.1459 745.545 11.481 743.92 10.976C743.798 10.9381 743.679 10.9012 743.564 10.8659C737.176 9.17766 730.552 8.50237 723.928 9.00884C721.362 9.21229 718.968 9.90612 716.538 10.6102C714.936 11.0745 713.318 11.5433 711.626 11.8788C708.314 12.5541 705.475 12.5541 701.926 11.5412C688.441 7.32061 674.483 4.11297 659.579 3.77532C655.557 3.6065 652.008 3.26886 648.223 2.25592C643.204 0.76351 638.369 1.90971 633.72 3.01208C633.11 3.15672 632.503 3.30061 631.899 3.43768C631.347 3.55023 630.822 3.7378 630.296 3.92538C629.244 4.30054 628.193 4.67571 626.931 4.45061C620.603 3.47421 614.522 4.52725 608.509 5.56843C606.205 5.96742 603.911 6.36468 601.617 6.64531C600.198 6.81413 599.015 6.81413 597.595 6.81413C594.047 6.64531 590.735 6.98296 587.186 8.16471C581.009 10.2391 574.413 11.3178 567.827 12.3949C565.837 12.7204 563.848 13.0457 561.872 13.3982C558.751 13.8671 556.428 13.3592 554.033 12.8354C552.978 12.6049 551.91 12.3712 550.753 12.2165C545.749 11.6451 540.744 12.4033 535.739 13.1615C534.83 13.2993 533.92 13.4372 533.01 13.567C532.311 13.6916 531.613 13.8213 530.914 13.9511C525.932 14.8765 520.927 15.806 515.74 14.9176C514.557 14.7488 513.137 14.7488 512.191 15.0864C502.728 18.9694 492.318 19.4758 481.672 19.8135C480.153 19.8135 478.922 20.5553 477.609 21.3466C476.265 22.1569 474.834 23.0191 472.919 23.1899C472.335 23.1899 471.751 23.3042 471.184 23.4152C470.372 23.5741 469.594 23.7264 468.897 23.5276C465.427 22.5548 461.827 22.6012 458.233 22.6475C454.967 22.6896 451.706 22.7316 448.552 22.0082C441.45 20.4315 434.243 20.6579 427.071 20.8831C423.492 20.9955 419.921 21.1076 416.377 20.9952C415.825 20.939 415.299 20.939 414.791 20.939C413.775 20.939 412.828 20.939 411.882 20.4888C408.097 18.8005 404.548 18.1252 401.472 21.3329C400.526 22.3458 398.397 22.8523 396.741 22.177C393.192 20.9952 389.644 21.3329 386.095 21.6705C385.867 21.6705 385.614 21.7055 385.352 21.7417C384.801 21.8179 384.21 21.8995 383.729 21.6705C379.116 19.2562 373.702 18.8393 368.334 18.4259C365.444 18.2033 362.567 17.9817 359.835 17.45C350.845 15.5929 341.855 15.5929 332.628 16.2682C330.14 16.4296 327.652 16.0894 325.138 15.7457C322.393 15.3704 319.618 14.9909 316.778 15.2553C312.874 15.5929 308.911 15.8039 304.949 16.015C300.986 16.226 297.023 16.437 293.12 16.7747C289.808 16.9435 287.205 16.9435 284.13 15.7617C279.872 13.9047 275.14 13.0606 270.172 13.7358C268.043 14.0735 266.15 14.4111 264.731 15.7617C261.655 18.4629 257.633 19.307 253.138 19.1382C250.418 19.0538 247.697 18.8849 244.976 18.7161C242.256 18.5473 239.535 18.3785 236.814 18.2941C234.685 18.2941 232.793 17.9564 231.136 16.9435C229.221 15.7282 226.922 15.8798 224.412 16.0454C224.132 16.0639 223.85 16.0825 223.566 16.0994C215.759 16.6058 208.898 17.4499 204.64 23.0211C203.93 24.034 200.145 24.5405 198.016 24.3717C191.968 23.737 186.054 24.2476 180.173 24.7553C178.232 24.9229 176.295 25.0901 174.358 25.2158C172.803 25.3123 171.249 25.3536 169.694 25.3949C165.807 25.4983 161.921 25.6017 158.034 26.5664C156.141 27.0728 153.539 27.0728 151.883 26.3975C144.003 23.0506 136.124 24.4812 128.362 25.8903C126.336 26.2581 124.318 26.6245 122.311 26.904C114.977 27.917 108.353 27.917 101.965 25.3846C97.7067 23.6964 93.6849 23.0211 88.9533 23.8652C88.7642 23.898 88.5749 23.9309 88.3854 23.9639C88.1267 24.0089 87.8675 24.054 87.608 24.0992C79.2584 25.5527 70.5262 27.0728 62.2201 27.0728C56.9169 27.0728 52.4866 28.2414 48.0402 29.4142L48.0398 29.4143C47.2932 29.6113 46.5461 29.8083 45.7943 30H30.1159C28.7948 29.5115 27.5183 28.9161 26.2602 28.2546C23.6579 26.904 21.0554 26.2287 17.7433 25.8911C13.4556 25.538 9.39777 24.6107 5.32945 23.6811Z" fill="#FFCB66"/>
</svg>
