<svg width="36" height="36" viewBox="0 0 36 36" fill="none" xmlns="http://www.w3.org/2000/svg">
<path d="M18.0063 8.75593C12.9018 8.75593 8.76934 12.8929 8.76934 17.9928C8.76934 23.0972 12.9063 27.2296 18.0063 27.2296C23.1108 27.2296 27.2433 23.0927 27.2433 17.9928C27.2433 12.8884 23.1063 8.75593 18.0063 8.75593ZM18.0063 23.9882C14.6928 23.9882 12.0108 21.3047 12.0108 17.9928C12.0108 14.6808 14.6943 11.9974 18.0063 11.9974C21.3183 11.9974 24.0018 14.6808 24.0018 17.9928C24.0033 21.3047 21.3198 23.9882 18.0063 23.9882Z" fill="white"/>
<path d="M25.4223 0.113078C22.1103 -0.0414193 13.9068 -0.0339194 10.5918 0.113078C7.67884 0.249576 5.10934 0.953063 3.03784 3.02453C-0.424159 6.48647 0.0183409 11.1514 0.0183409 17.9928C0.0183409 24.9946 -0.371659 29.5516 3.03784 32.961C6.51334 36.4349 11.2458 35.9805 18.0063 35.9805C24.9423 35.9805 27.3363 35.985 29.7888 35.0355C33.1233 33.741 35.6403 30.7605 35.8863 25.4071C36.0423 22.0937 36.0333 13.8918 35.8863 10.5769C35.5893 4.25751 32.1978 0.425073 25.4223 0.113078ZM30.6648 30.6705C28.3953 32.94 25.2468 32.7375 17.9628 32.7375C10.4628 32.7375 7.45534 32.8485 5.26084 30.648C2.73334 28.1326 3.19084 24.0932 3.19084 17.9688C3.19084 9.68141 2.34034 3.71302 10.6578 3.28702C12.5688 3.21952 13.1313 3.19702 17.9418 3.19702L18.0093 3.24202C26.0028 3.24202 32.2743 2.40504 32.6508 10.7209C32.7363 12.6184 32.7558 13.1883 32.7558 17.9913C32.7543 25.4041 32.8953 28.4296 30.6648 30.6705Z" fill="white"/>
<path d="M27.6093 10.5499C28.8015 10.5499 29.7678 9.58352 29.7678 8.39143C29.7678 7.19935 28.8015 6.23297 27.6093 6.23297C26.4172 6.23297 25.4508 7.19935 25.4508 8.39143C25.4508 9.58352 26.4172 10.5499 27.6093 10.5499Z" fill="white"/>
</svg>
