<svg width="126" height="123" viewBox="0 0 126 123" fill="none" xmlns="http://www.w3.org/2000/svg">
<g filter="url(#filter0_d)">
<circle cx="63" cy="58" r="40" fill="white"/>
<path d="M63 16C39.2884 16 20 34.6173 20 57.5C20 80.3827 39.2884 99 63 99C86.7116 99 106 80.3827 106 57.5C106 34.6173 86.7116 16 63 16ZM80.0943 58.954L55.0111 74.5165C54.7171 74.7005 54.3777 74.7917 54.0417 74.7917C53.7478 74.7917 53.4503 74.7207 53.1844 74.5807C52.6069 74.2767 52.25 73.6957 52.25 73.0625V41.9375C52.25 41.3043 52.6069 40.7233 53.1844 40.4193C53.7513 40.1188 54.4616 40.1373 55.0111 40.4835L80.0943 56.046C80.6053 56.3635 80.9167 56.9124 80.9167 57.5C80.9167 58.0876 80.6053 58.6364 80.0943 58.954Z" fill="#FFA800"/>
</g>
<defs>
<filter id="filter0_d" x="0" y="0" width="126" height="123" filterUnits="userSpaceOnUse" color-interpolation-filters="sRGB">
<feFlood flood-opacity="0" result="BackgroundImageFix"/>
<feColorMatrix in="SourceAlpha" type="matrix" values="0 0 0 0 0 0 0 0 0 0 0 0 0 0 0 0 0 0 127 0"/>
<feOffset dy="4"/>
<feGaussianBlur stdDeviation="10"/>
<feColorMatrix type="matrix" values="0 0 0 0 0 0 0 0 0 0 0 0 0 0 0 0 0 0 0.25 0"/>
<feBlend mode="normal" in2="BackgroundImageFix" result="effect1_dropShadow"/>
<feBlend mode="normal" in="SourceGraphic" in2="effect1_dropShadow" result="shape"/>
</filter>
</defs>
</svg>
